<svg width="80" height="80" viewBox="0 0 80 80" fill="none" xmlns="http://www.w3.org/2000/svg">
<rect width="80" height="80" fill="#FF4500"/>
<path fill-rule="evenodd" clip-rule="evenodd" d="M68.4944 10.8229L73.8581 12.6461C74.2337 12.7973 74.5483 13.0694 74.7522 13.4196C74.9561 13.7697 75.0376 14.1778 74.9839 14.5795L70.1555 29.4455C69.8379 30.3379 69.1822 31.0693 68.3302 31.4817C67.4782 31.8941 66.4983 31.9543 65.6024 31.6493L51.9278 27.1915H51.0172L52.4081 33.9033C52.4613 34.239 52.4276 34.5827 52.3103 34.9017C52.193 35.2207 51.996 35.5042 51.738 35.7253C51.4801 35.9463 51.1698 36.0975 50.8369 36.1643C50.504 36.2312 50.1595 36.2115 49.8363 36.1071L43.5069 34.0635C43.198 33.9644 42.9187 33.7898 42.6941 33.5554C42.4696 33.321 42.307 33.0343 42.221 32.7212L39.5942 23.7054L38.1982 23.2196L24.2034 18.7117C23.7054 18.5848 23.2397 18.3542 22.8368 18.0348C22.4339 17.7154 22.1029 17.3145 21.8654 16.8584C21.6278 16.4022 21.4891 15.9009 21.4583 15.3874C21.4275 14.8739 21.5053 14.3596 21.6867 13.8783C22.3469 12.0233 23.4084 10.3373 24.7954 8.94097C26.1824 7.54459 27.8606 6.47232 29.7098 5.80087C31.559 5.12941 33.5336 4.87537 35.4924 5.05691C37.4511 5.23845 39.3455 5.85109 41.0402 6.851L62.4902 17.5847L66.4029 11.5192C66.6269 11.1894 66.9528 10.9422 67.3305 10.8156C67.7083 10.6889 68.1171 10.6897 68.4944 10.8179V10.8229ZM5 46.6706C5.00034 41.8309 6.23834 37.0719 8.59609 32.8468C10.9539 28.6217 14.3529 25.0712 18.4694 22.5334C19.6065 23.5546 20.9621 24.3016 22.4322 24.7172L28.0311 26.5204C25.2611 27.2481 22.671 28.5403 20.4227 30.316C18.1744 32.0916 16.3163 34.3127 14.9647 36.8401C13.6131 39.3675 12.797 42.1469 12.5675 45.0045C12.3381 47.8621 12.7001 50.7363 13.631 53.4474H22.162C23.9136 53.4474 25.5936 52.7508 26.8322 51.5109C28.0708 50.271 28.7666 48.5893 28.7666 46.8358V41.3763C28.7371 40.4897 28.8861 39.6062 29.2047 38.7784C29.5234 37.9507 30.0052 37.1956 30.6215 36.5581C31.2377 35.9206 31.9758 35.4138 32.7918 35.0679C33.6078 34.7219 34.4851 34.5439 35.3712 34.5444C35.6614 34.5444 35.945 34.5277 36.2218 34.4943C36.597 35.788 37.2843 36.9695 38.2232 37.9347C39.162 38.8999 40.3236 39.6191 41.6056 40.029L47.9 42.0575H47.91C49.0081 42.4139 50.1687 42.5352 51.3166 42.4136C52.4646 42.2921 53.5742 41.9302 54.5734 41.3517C55.5727 40.7732 56.4393 39.9908 57.117 39.0553C57.7947 38.1199 58.2684 37.0523 58.5074 35.9218L59.6732 36.3024C61.194 40.1825 61.8413 44.3506 61.5689 48.5097C61.2966 52.6688 60.1112 56.7165 58.0974 60.3646C56.0836 64.0127 53.2909 67.1713 49.9182 69.6154C46.5455 72.0595 42.6759 73.7289 38.585 74.5047C34.4941 75.2805 30.2826 75.1436 26.2506 74.1037C22.2186 73.0638 18.4653 71.1466 15.2582 68.4886C12.051 65.8306 9.46887 62.4973 7.69576 58.726C5.92266 54.9548 5.00221 50.8386 5 46.6706ZM34.996 67.4368C38.201 67.1774 41.3024 66.1781 44.0569 64.5174C46.8114 62.8567 49.1441 60.5797 50.8721 57.8651L50.3717 57.4995C48.6483 56.6095 46.7418 56.1328 44.8028 56.107H37.4427C36.1566 56.2256 34.9418 56.7517 33.975 57.6089C33.0082 58.4661 32.3397 59.6096 32.0668 60.8733C31.7939 62.137 31.9308 63.4548 32.4576 64.6353C32.9844 65.8157 33.8736 66.7971 34.996 67.4368Z" fill="#F4E1C1"/>
</svg>
