<svg width="70" height="70" viewBox="0 0 70 70" fill="none" xmlns="http://www.w3.org/2000/svg">
<path fill-rule="evenodd" clip-rule="evenodd" d="M69.9 7.5C69.9681 6.66842 70.0014 5.83436 70 5V4.16921e-07H61.25C54.758 -0.00108155 48.4409 2.10376 43.247 5.9985C38.0531 9.89324 34.2627 15.3677 32.445 21.6C29.6431 17.9858 26.0508 15.0612 21.9436 13.0505C17.8363 11.0397 13.3231 9.99622 8.75 10H0V15C0 22.9565 3.1607 30.5871 8.7868 36.2132C14.4129 41.8393 22.0435 45 30 45H31.25V66.25C31.25 67.2446 31.6451 68.1984 32.3483 68.9016C33.0516 69.6049 34.0054 70 35 70C35.9946 70 36.9484 69.6049 37.6516 68.9016C38.3549 68.1984 38.75 67.2446 38.75 66.25V35H40C47.5245 35.0011 54.7746 32.1746 60.3128 27.0809C65.8511 21.9872 69.273 14.9983 69.9 7.5ZM38.885 27.5C39.5 21.999 42.1212 16.9178 46.2473 13.2281C50.3734 9.53829 55.7148 7.49894 61.25 7.5H62.365C61.75 13.001 59.1288 18.0822 55.0027 21.772C50.8766 25.4617 45.5352 27.5011 40 27.5H38.885ZM8.75 17.5C14.2852 17.4989 19.6266 19.5383 23.7527 23.228C27.8788 26.9178 30.5 31.999 31.115 37.5H30C24.4648 37.5011 19.1234 35.4617 14.9973 31.772C10.8712 28.0822 8.25003 23.001 7.635 17.5H8.75Z" fill="black"/>
</svg>
